<svg width="573" height="590" viewBox="0 0 573 590" fill="none" xmlns="http://www.w3.org/2000/svg">
    <g opacity="0.2">
        <path d="M206.208 500.792L300.475 300.475L500.792 206.208L406.525 406.525L206.208 500.792ZM353.5 326.988C346.469 326.988 339.725 329.781 334.753 334.753C329.781 339.725 326.988 346.469 326.988 353.5C326.988 360.532 329.781 367.275 334.753 372.247C339.725 377.219 346.469 380.013 353.5 380.013C360.532 380.013 367.275 377.219 372.247 372.247C377.219 367.275 380.013 360.532 380.013 353.5C380.013 346.469 377.219 339.725 372.247 334.753C367.275 329.781 360.532 326.988 353.5 326.988ZM353.5 58.9167C392.185 58.9167 430.492 66.5364 466.232 81.3406C501.973 96.1448 534.447 117.844 561.802 145.198C589.156 172.553 610.855 205.027 625.66 240.768C640.464 276.508 648.083 314.815 648.083 353.5C648.083 431.628 617.047 506.557 561.802 561.802C506.557 617.047 431.628 648.083 353.5 648.083C314.815 648.083 276.508 640.464 240.768 625.66C205.027 610.855 172.553 589.156 145.198 561.802C89.9531 506.557 58.9167 431.628 58.9167 353.5C58.9167 275.372 89.9531 200.443 145.198 145.198C200.443 89.9531 275.372 58.9167 353.5 58.9167ZM353.5 117.833C290.997 117.833 231.055 142.663 186.859 186.859C142.663 231.055 117.833 290.997 117.833 353.5C117.833 416.003 142.663 475.945 186.859 520.142C231.055 564.338 290.997 589.167 353.5 589.167C416.003 589.167 475.945 564.338 520.142 520.142C564.338 475.945 589.167 416.003 589.167 353.5C589.167 290.997 564.338 231.055 520.142 186.859C475.945 142.663 416.003 117.833 353.5 117.833Z" fill="white"/>
    </g>
</svg>
